<svg xmlns="http://www.w3.org/2000/svg" style="display: none;"><symbol id="rope" viewBox="0 0 511.824 511.824"><title>rope</title><path d="m318.35 286.212v90.61c0 48.24-39.25 87.5-87.5 87.5s-87.5-39.26-87.5-87.5v-90.61h40v90.61c0 26.19 21.31 47.5 47.5 47.5s47.5-21.31 47.5-47.5v-90.61z" fill="#f7bd83"/><path d="m318.35 135.002v80.61h-40v-80.61c0-26.19-21.31-47.5-47.5-47.5s-47.5 21.31-47.5 47.5v80.61h-40v-80.61c0-48.24 39.25-87.5 87.5-87.5s87.5 39.26 87.5 87.5z" fill="#f7bd83"/><path d="m358.35 136.402v19.76h-5.5c-19.06 0-34.5 15.44-34.5 34.5v-55.66c0-48.24-39.25-87.5-87.5-87.5s-87.5 39.26-87.5 87.5v80.61h-30.55c-3.43 0-6.65.88-9.45 2.43v-83.04c0-70.55 57.61-127.91 128.25-127.5 70.36.41 126.75 58.55 126.75 128.9z" fill="#f7bd83"/><path d="m358.35 283.782v93.04c0 70.55-57.61 127.91-128.25 127.5-70.36-.41-126.75-58.55-126.75-128.9v-91.64c2.8 1.55 6.02 2.43 9.45 2.43h30.55v90.61c0 48.24 39.25 87.5 87.5 87.5s87.5-39.26 87.5-87.5v-90.61h30.55c3.43 0 6.65-.88 9.45-2.43z" fill="#f7bd83"/><path d="m418.6 175.132v2.06c0 10.48-8.49 18.97-18.97 18.97h-34.39c-3.81 0-6.89 3.08-6.89 6.89v14.99c-2.8-1.55-6.02-2.43-9.45-2.43h-30.55v-24.95c0-19.05 15.45-34.5 34.5-34.5h46.78c10.48 0 18.97 8.49 18.97 18.97z" fill="#f7bd83"/><path d="m368.47 236.542v-1.35c0-10.763-8.719-19.58-19.57-19.58h-236.1c-10.849 0-19.57 8.815-19.57 19.58v1.35c0 5.683 2.431 10.795 6.3 14.37-3.868 3.575-6.3 8.687-6.3 14.37v1.35c0 10.763 8.719 19.58 19.57 19.58h236.1c10.849 0 19.57-8.815 19.57-19.58v-1.35c0-5.683-2.431-10.795-6.3-14.37 3.869-3.575 6.3-8.687 6.3-14.37z" fill="#f7bd83"/><g fill="#d9694b"><path d="m298.35 376.822v-90.61h-20v90.61c0 22.76-16.096 41.825-37.5 46.431 29.697 6.392 57.5-16.377 57.5-46.431z"/><path d="m163.35 376.822v-90.61h-20v90.61c0 52.265 45.647 92.856 97.5 86.925-43.557-4.979-77.5-42.066-77.5-86.925z"/><path d="m240.85 48.077c-51.775-5.918-97.5 34.596-97.5 86.925v80.61h20v-80.61c0-44.859 33.943-81.946 77.5-86.925z"/><path d="m240.85 88.571c21.404 4.606 37.5 23.672 37.5 46.431v80.61h20v-80.61c0-30.118-27.86-52.811-57.5-46.431z"/><path d="m123.35 135.002c0-66.932 51.856-121.985 117.495-127.105-74.106-5.827-137.495 52.961-137.495 127.105v83.04c5.603-3.101 9.804-2.43 20-2.43z"/><path d="m338.35 135.002c0-52.256-45.631-92.854-97.5-86.925 43.557 4.979 77.5 42.066 77.5 86.925v55.66c0-13.879 8.19-25.83 20-31.307z"/><path d="m358.35 283.782c-2.8 1.55-6.02 2.43-9.45 2.43h9.45z"/><path d="m123.35 375.422v-89.21c-10.527 0-14.505.611-20-2.43v91.64c0 73.852 62.228 134.38 137.505 128.505-65.99-5.186-117.505-61.265-117.505-128.505z"/><path d="m338.35 376.822v-90.61h-20v90.61c0 44.859-33.943 81.946-77.5 86.925 51.767 5.921 97.5-34.588 97.5-86.925z"/><path d="m348.9 215.612c3.43 0 6.65.88 9.45 2.43v-2.43z"/><path d="m372.85 156.162h-20c-19.05 0-34.5 15.45-34.5 34.5v24.95h20v-24.95c0-19.05 15.45-34.5 34.5-34.5z"/><path d="m113.23 266.632v-1.35c0-5.683 2.431-10.795 6.3-14.37-3.868-3.575-6.3-8.687-6.3-14.37v-1.35c0-10.763 8.719-19.58 19.57-19.58-20.518 0-23.674-.767-29.45 2.43-6.03 3.34-10.12 9.77-10.12 17.15v1.35c0 5.683 2.431 10.795 6.3 14.37-3.868 3.575-6.3 8.687-6.3 14.37v1.35c0 7.38 4.09 13.81 10.12 17.15 5.64 3.122 8.486 2.43 29.45 2.43-10.85 0-19.57-8.815-19.57-19.58z"/></g><path d="m275.849 258.412h-15v-15h15zm-30 0h-15v-15h15zm-30 0h-86.666v-15h86.666z" fill="#fff"/><path d="m175.845 316.212v60.61c0 30.327 24.673 55 55 55s55-24.673 55-55v-60.61h-15v60.61c0 22.056-17.944 40-40 40s-40-17.944-40-40v-60.61z"/><path d="m285.844 185.612v-50.61c0-30.327-24.673-55-55-55s-55 24.673-55 55v50.61h15v-50.61c0-22.056 17.944-40 40-40s40 17.944 40 40v50.61z"/><path d="m110.845 135.002c0-30.587 11.562-59.738 32.556-82.084l-10.932-10.271c-23.617 25.138-36.624 57.938-36.624 92.355v51.521h15z"/><path d="m135.845 316.212v60.61c0 52.383 42.617 95 95 95s95-42.617 95-95v-60.61h-15v60.61c0 44.112-35.888 80-80 80s-80-35.888-80-80v-60.61z"/><path d="m230.139 496.822c-65.779-.384-119.294-54.844-119.294-121.4v-60.12h-15v60.12c0 75.128 60.715 136.402 134.991 136.402 33.067-.001 64.88-12.104 89.652-34.127l-9.967-11.211c-22.195 19.735-50.709 30.537-80.382 30.336z"/><path d="m350.844 376.822c0 29.377-10.773 57.674-30.335 79.677l11.211 9.967c22.005-24.752 34.124-56.588 34.124-89.644v-61.521h-15z"/><path d="m399.635 148.662h-33.79v-12.26c-.001-75.1-60.694-136.402-134.974-136.402-31.745 0-62.568 11.251-86.869 31.727l9.665 11.471c21.772-18.345 49.47-28.343 77.884-28.195 65.779.384 119.293 54.844 119.293 121.4v12.308c-9.396.452-18.116 4.075-25 9.866v-23.574c0-52.383-42.616-95-95-95s-95 42.617-95 95v50.61h15v-50.61c0-44.112 35.888-80 80-80s80 35.888 80 80v55.66h15c0-15.105 12.421-27 27-27h46.79c6.319 0 11.46 5.146 11.46 11.47v2.061c0 6.324-5.141 11.47-11.46 11.47h-20.189v15h20.189c14.59 0 26.46-11.874 26.46-26.47v-2.061c0-14.597-11.87-26.471-26.459-26.471z"/><path d="m348.9 208.112h-236.1c-14.976 0-27.07 12.167-27.07 27.08 0 5.4.752 10.305 4.145 15.72-3.342 5.334-4.145 10.199-4.145 15.72 0 14.91 12.09 27.08 27.07 27.08h236.1c22.12 0 34.156-24.872 22.925-42.8 3.342-5.334 4.145-10.199 4.145-15.72-.001-14.937-12.119-27.08-27.07-27.08zm12.069 58.52c0 6.562-5.303 12.08-12.069 12.08-255.949 0-237.842.764-241.917-1.49-3.857-2.137-6.254-6.194-6.254-10.59v-1.35c0-3.397 1.381-6.544 3.889-8.861l5.963-5.509-5.963-5.509c-2.508-2.317-3.889-5.464-3.889-8.861v-1.35c0-4.396 2.396-8.453 6.252-10.589 3.932-2.176-13.25-1.491 241.918-1.491 6.748 0 12.069 5.501 12.069 12.08 0 2.732-.067 5.236-2.155 8.22h-57.631v15h57.631c1.991 2.844 2.156 5.288 2.156 8.22z"/></symbol><symbol id="exam" viewBox="0 0 512 512"><title>exam</title><path d="m440 472h-240a32 32 0 0 1 -32-32v-368a32 32 0 0 1 32-32h192l80 72v328a32 32 0 0 1 -32 32z" fill="#fabe19"/><path d="m392 40v40a32 32 0 0 0 32 32h48z" fill="#f5871e"/><path d="m104 40a16 16 0 0 1 16 16v16a0 0 0 0 1 0 0h-32a0 0 0 0 1 0 0v-16a16 16 0 0 1 16-16z" fill="#55525b"/><path d="m104 40a16 16 0 0 1 16 16v16a0 0 0 0 1 0 0h-16a0 0 0 0 1 0 0v-32a0 0 0 0 1 0 0z" fill="#353744"/><path d="m72 104h64v200h-64z" fill="#d7e6f0"/><path d="m104 104h32v200h-32z" fill="#a5c3dc"/><path d="m72 304h64v128h-64z" fill="#55525b"/><path d="m104 304h32v128h-32z" fill="#353744"/><path d="m112.292 467.562 23.708-35.562h-64l23.708 35.562a9.966 9.966 0 0 0 8.292 4.438 9.966 9.966 0 0 0 8.292-4.438z" fill="#a5c3dc"/><path d="m112.292 467.562 2.375-3.562h-21.334l2.375 3.563a9.967 9.967 0 0 0 8.292 4.437 9.964 9.964 0 0 0 8.292-4.438z" fill="#353744"/><path d="m72 104v-16h-16a16 16 0 0 0 -16 16v95.548c0 8.615 6.621 16.028 15.226 16.434a16 16 0 1 0 .774-31.982v-80z" fill="#55525b"/><path d="m88 72h32a16 16 0 0 1 16 16v16a0 0 0 0 1 0 0h-64a0 0 0 0 1 0 0v-16a16 16 0 0 1 16-16z" fill="#55525b"/><path d="m104 72h16a16 16 0 0 1 16 16v16a0 0 0 0 1 0 0h-32a0 0 0 0 1 0 0v-32a0 0 0 0 1 0 0z" fill="#353744"/><path d="m261.333 88a28.032 28.032 0 0 0 -28 28v44a8 8 0 0 0 16 0v-24h24v24a8 8 0 0 0 16 0v-44a28.032 28.032 0 0 0 -28-28zm-12 32v-4a12 12 0 1 1 24 0v4z" fill="#6478b9"/><path d="m260 56a76 76 0 1 0 76 76 76.086 76.086 0 0 0 -76-76zm0 136a60 60 0 1 1 60-60 60.068 60.068 0 0 1 -60 60z" fill="#6478b9"/><g fill="#f5871e"><rect height="32" rx="16" width="152" x="200" y="240"/><rect height="32" rx="16" width="152" x="200" y="320"/><rect height="32" rx="16" width="152" x="200" y="400"/></g><path d="m400 278.667h-.109a12 12 0 0 1 -8.529-3.67l-15.71-16.291a12 12 0 0 1 17.277-16.659l7.226 7.494 23.36-23.359a12 12 0 1 1 16.97 16.971l-32 32a12 12 0 0 1 -8.485 3.514z" fill="#6478b9"/><path d="m400 361.333h-.109a12 12 0 0 1 -8.53-3.67l-15.709-16.291a12 12 0 0 1 17.278-16.66l7.226 7.5 23.359-23.359a12 12 0 0 1 16.97 16.971l-32 32a12 12 0 0 1 -8.485 3.509z" fill="#6478b9"/><path d="m400 436h-.109a12.005 12.005 0 0 1 -8.529-3.67l-15.71-16.291a12 12 0 0 1 17.277-16.66l7.226 7.5 23.36-23.359a12 12 0 0 1 16.97 16.97l-32 32a12 12 0 0 1 -8.485 3.51z" fill="#6478b9"/></symbol><symbol id="gym" viewBox="0 0 512 512"><title>gym</title><path d="m386 377h20c8.284 0 15-6.716 15-15s-6.716-15-15-15h-20c-8.284 0-15 6.716-15 15s6.716 15 15 15z"/><path d="m206 291h100c8.284 0 15-6.716 15-15s-6.716-15-15-15h-100c-8.284 0-15 6.716-15 15s6.716 15 15 15z"/><path d="m106 377h20c8.284 0 15-6.716 15-15s-6.716-15-15-15h-20c-8.284 0-15 6.716-15 15s6.716 15 15 15z"/><path d="m497 482h-16v-252h15c8.284 0 15-6.716 15-15v-60c0-8.284-6.716-15-15-15h-95v-125c0-8.284-6.716-15-15-15h-260c-8.284 0-15 6.716-15 15v125h-95c-8.284 0-15 6.716-15 15v60c0 8.284 6.716 15 15 15h15v252h-16c-8.284 0-15 6.716-15 15s6.716 15 15 15h482c8.284 0 15-6.716 15-15s-6.716-15-15-15zm-356-452h230v110h-230zm-110 140h450v30h-450zm420 60v192h-110v-85c0-8.284-6.716-15-15-15h-140c-8.284 0-15 6.716-15 15v95h-110v-202zm-390 232h110v20h-110zm140-110h40v130h-40zm70 130v-130h40v130zm70 0v-30h110v30z"/><path d="m341.248 59.409c-.781-3.839-4.058-6.674-7.969-6.896-3.902-.213-7.486 2.228-8.695 5.953-.028.085-.054.172-.079.258l-7.774 27.274-8.069-27.349c-.026-.088-.054-.176-.083-.263-1.245-3.715-4.866-6.132-8.755-5.866-3.91.262-7.158 3.131-7.916 7.065l-8.788 48.69c-.735 4.076 1.973 7.978 6.049 8.713 4.073.731 7.978-1.973 8.713-6.049l4.012-22.227 6.679 22.638c.026.09.055.179.084.268 1.185 3.522 4.467 5.88 8.179 5.88h.048c3.73-.021 7.011-2.419 8.162-5.968.027-.086.054-.171.078-.257l6.446-22.612 4.272 22.354c.777 4.069 4.712 6.743 8.774 5.958 4.068-.777 6.736-4.706 5.958-8.774z"/><path d="m215.581 77.5h-14.957c-4.143 0-7.5 3.357-7.5 7.5s3.357 7.5 7.5 7.5h6.381c-1.739 5.564-5.733 10-13.005 10-9.649 0-17.5-7.851-17.5-17.5s7.851-17.5 17.5-17.5c3.507 0 6.889 1.032 9.779 2.984 3.432 2.317 8.094 1.416 10.413-2.017 2.318-3.433 1.416-8.095-2.017-10.413-5.379-3.633-11.664-5.554-18.175-5.554-17.921 0-32.5 14.579-32.5 32.5s14.579 32.5 32.5 32.5c17.122 0 29.081-13.364 29.081-32.5 0-4.143-3.357-7.5-7.5-7.5z"/><path d="m272.997 53.842c-3.471-2.262-8.116-1.279-10.377 2.193l-9.564 14.691-9.681-14.827c-2.267-3.469-6.912-4.441-10.381-2.18-3.468 2.265-4.444 6.912-2.18 10.381l14.745 22.583-.057 23.298c-.01 4.143 3.34 7.509 7.481 7.519h.019c4.134 0 7.49-3.346 7.5-7.481l.057-23.326 14.63-22.474c2.261-3.472 1.28-8.117-2.192-10.377z"/></symbol><symbol id="heart" viewBox="0 -20 464 464"><title>heart</title><path d="m340 0c-44.773438.00390625-86.066406 24.164062-108 63.199219-21.933594-39.035157-63.226562-63.19531275-108-63.199219-68.480469 0-124 63.519531-124 132 0 172 232 292 232 292s232-120 232-292c0-68.480469-55.519531-132-124-132zm0 0" fill="#ff6243"/><path d="m32 132c0-63.359375 47.550781-122.359375 108.894531-130.847656-5.597656-.769532-11.242187-1.15625025-16.894531-1.152344-68.480469 0-124 63.519531-124 132 0 172 232 292 232 292s6-3.113281 16-8.992188c-52.414062-30.824218-216-138.558593-216-283.007812zm0 0" fill="#ff5023"/></symbol><symbol id="calendar" viewBox="0 0 512 512"><title>calendar</title><path style="fill:#EE3C32;" d="M502,81c0-22-18-40-40-40H50c-22,0-40,18-40,40v32h492V81z"/><path style="fill:#ECECEC;" d="M10,113v349c0,22,18,40,40,40h412c22,0,40-18,40-40V113H10z"/><path style="fill:#5AD0E4;" d="M102.941,292L200,193l65,45l62-79l119,94.615V113H66v179H102.941z"/><polygon style="fill:#3CAA5A;" points="265,238 200,193 102.941,292 446,292 446,253.615 327,159 "/><circle style="fill:#FAC800;" cx="126" cy="174" r="20"/><g> <path style="fill:#231F20;" d="M462,31h-43.96V10c0-5.51-4.48-10-10-10c-5.51,0-10,4.49-10,10v21h-81.53V10 c0-5.51-4.479-10-9.99-10c-5.52,0-10,4.49-10,10v21h-81.04V10c0-5.51-4.479-10-10-10c-5.51,0-10,4.49-10,10v21h-81.44V10 c0-5.51-4.48-10-10-10c-5.51,0-10,4.49-10,10v21H50C22.43,31,0,53.43,0,81v381c0,27.57,22.43,50,50,50h412c27.57,0,50-22.43,50-50 V81C512,53.43,489.57,31,462,31z M20,81c0-16.542,13.458-30,30-30h44.04v18.85c0,5.51,4.49,10,10,10c5.52,0,10-4.49,10-10V51 h81.439v18.85c0,5.51,4.49,10,10,10c5.521,0,10-4.49,10-10V51h81.04v18.85c0,5.51,4.48,10,10,10c5.511,0,9.99-4.49,9.99-10V51 h81.53v18.85c0,5.51,4.49,10,10,10c5.52,0,10-4.49,10-10V51H462c16.542,0,30,13.458,30,30v22H20V81z M436,258.44V282H126.75 l74.489-75.979l58.068,40.201c4.35,3.014,10.293,2.112,13.559-2.048l55.787-71.083L436,258.44z M436,232.889l-102.776-81.716 c-2.085-1.658-4.74-2.416-7.39-2.104c-2.645,0.311-5.057,1.663-6.7,3.758l-56.186,71.591l-57.256-39.639 c-4.008-2.773-9.425-2.255-12.833,1.221l-94.118,96H76V123h360V232.889z M492,462c0,16.542-13.458,30-30,30H50 c-16.542,0-30-13.458-30-30V123h36v169c0,5.522,4.478,10,10,10h380c5.522,0,10-4.478,10-10V123h36V462z"/> <path style="fill:#231F20;" d="M71,366H53c-5.522,0-10,4.478-10,10s4.478,10,10,10h18c5.522,0,10-4.478,10-10S76.522,366,71,366z"/> <path style="fill:#231F20;" d="M135,366h-18c-5.522,0-10,4.478-10,10s4.478,10,10,10h18c5.522,0,10-4.478,10-10 S140.522,366,135,366z"/> <path style="fill:#231F20;" d="M200,366h-18c-5.522,0-10,4.478-10,10s4.478,10,10,10h18c5.522,0,10-4.478,10-10 S205.522,366,200,366z"/> <path style="fill:#231F20;" d="M265,366h-18c-5.522,0-10,4.478-10,10s4.478,10,10,10h18c5.522,0,10-4.478,10-10 S270.522,366,265,366z"/> <path style="fill:#231F20;" d="M330,366h-18c-5.522,0-10,4.478-10,10s4.478,10,10,10h18c5.522,0,10-4.478,10-10 S335.522,366,330,366z"/> <path style="fill:#231F20;" d="M395,366h-18c-5.522,0-10,4.478-10,10s4.478,10,10,10h18c5.522,0,10-4.478,10-10 S400.522,366,395,366z"/> <path style="fill:#231F20;" d="M460,366h-18c-5.522,0-10,4.478-10,10s4.478,10,10,10h18c5.522,0,10-4.478,10-10 S465.522,366,460,366z"/> <path style="fill:#231F20;" d="M135,324h-18c-5.522,0-10,4.478-10,10s4.478,10,10,10h18c5.522,0,10-4.478,10-10 S140.522,324,135,324z"/> <path style="fill:#231F20;" d="M200,324h-18c-5.522,0-10,4.478-10,10s4.478,10,10,10h18c5.522,0,10-4.478,10-10 S205.522,324,200,324z"/> <path style="fill:#231F20;" d="M265,324h-18c-5.522,0-10,4.478-10,10s4.478,10,10,10h18c5.522,0,10-4.478,10-10 S270.522,324,265,324z"/> <path style="fill:#231F20;" d="M330,324h-18c-5.522,0-10,4.478-10,10s4.478,10,10,10h18c5.522,0,10-4.478,10-10 S335.522,324,330,324z"/> <path style="fill:#231F20;" d="M395,324h-18c-5.522,0-10,4.478-10,10s4.478,10,10,10h18c5.522,0,10-4.478,10-10 S400.522,324,395,324z"/> <path style="fill:#231F20;" d="M442,324c-5.522,0-10,4.478-10,10s4.478,10,10,10h18c5.522,0,10-4.478,10-10s-4.478-10-10-10H442z"/> <path style="fill:#231F20;" d="M71,408H53c-5.522,0-10,4.478-10,10s4.478,10,10,10h18c5.522,0,10-4.478,10-10S76.522,408,71,408z"/> <path style="fill:#231F20;" d="M135,408h-18c-5.522,0-10,4.478-10,10s4.478,10,10,10h18c5.522,0,10-4.478,10-10 S140.522,408,135,408z"/> <path style="fill:#231F20;" d="M200,408h-18c-5.522,0-10,4.478-10,10s4.478,10,10,10h18c5.522,0,10-4.478,10-10 S205.522,408,200,408z"/> <path style="fill:#231F20;" d="M265,408h-18c-5.522,0-10,4.478-10,10s4.478,10,10,10h18c5.522,0,10-4.478,10-10 S270.522,408,265,408z"/> <path style="fill:#231F20;" d="M330,408h-18c-5.522,0-10,4.478-10,10s4.478,10,10,10h18c5.522,0,10-4.478,10-10 S335.522,408,330,408z"/> <path style="fill:#231F20;" d="M395,408h-18c-5.522,0-10,4.478-10,10s4.478,10,10,10h18c5.522,0,10-4.478,10-10 S400.522,408,395,408z"/> <path style="fill:#231F20;" d="M460,408h-18c-5.522,0-10,4.478-10,10s4.478,10,10,10h18c5.522,0,10-4.478,10-10 S465.522,408,460,408z"/> <path style="fill:#231F20;" d="M71,450H53c-5.522,0-10,4.478-10,10s4.478,10,10,10h18c5.522,0,10-4.478,10-10S76.522,450,71,450z"/> <path style="fill:#231F20;" d="M135,450h-18c-5.522,0-10,4.478-10,10s4.478,10,10,10h18c5.522,0,10-4.478,10-10 S140.522,450,135,450z"/> <path style="fill:#231F20;" d="M200,450h-18c-5.522,0-10,4.478-10,10s4.478,10,10,10h18c5.522,0,10-4.478,10-10 S205.522,450,200,450z"/> <path style="fill:#231F20;" d="M265,450h-18c-5.522,0-10,4.478-10,10s4.478,10,10,10h18c5.522,0,10-4.478,10-10 S270.522,450,265,450z"/> <path style="fill:#231F20;" d="M330,450h-18c-5.522,0-10,4.478-10,10s4.478,10,10,10h18c5.522,0,10-4.478,10-10 S335.522,450,330,450z"/> <path style="fill:#231F20;" d="M126,204c16.542,0,30-13.458,30-30s-13.458-30-30-30s-30,13.458-30,30S109.458,204,126,204z M126,164c5.514,0,10,4.486,10,10s-4.486,10-10,10s-10-4.486-10-10S120.486,164,126,164z"/> </g></symbol><symbol id="maps-and-flags" viewBox="0 0 512 512"><title>maps-and-flags</title><g> <g> <path d="M256,0C153.755,0,70.573,83.182,70.573,185.426c0,126.888,165.939,313.167,173.004,321.035 c6.636,7.391,18.222,7.378,24.846,0c7.065-7.868,173.004-194.147,173.004-321.035C441.425,83.182,358.244,0,256,0z M256,469.729 c-55.847-66.338-152.035-197.217-152.035-284.301c0-83.834,68.202-152.036,152.035-152.036s152.035,68.202,152.035,152.035 C408.034,272.515,311.861,403.37,256,469.729z"/> </g> </g><g> <g> <path d="M256,92.134c-51.442,0-93.292,41.851-93.292,93.293s41.851,93.293,93.292,93.293s93.291-41.851,93.291-93.293 S307.441,92.134,256,92.134z M256,245.328c-33.03,0-59.9-26.871-59.9-59.901s26.871-59.901,59.9-59.901s59.9,26.871,59.9,59.901 S289.029,245.328,256,245.328z"/> </g> </g></symbol><symbol id="way" viewBox="0 0 64 64"><title>way</title><path d="m55.71 31.29a1.033 1.033 0 0 0 -.71-.29h-20v-6h20a1.033 1.033 0 0 0 .71-.29l6-6a1.008 1.008 0 0 0 0-1.42l-6-6a1.033 1.033 0 0 0 -.71-.29h-20v-2.38a4 4 0 1 0 -6 0v12.38h-20a1.033 1.033 0 0 0 -.71.29l-6 6a1.008 1.008 0 0 0 0 1.42l6 6a1.033 1.033 0 0 0 .71.29h20v19.29c-3.06.57-5 1.97-5 3.71 0 2.63 4.02 4 8 4s8-1.37 8-4c0-1.74-1.94-3.14-5-3.71v-9.29h20a1.033 1.033 0 0 0 .71-.29l6-6a1.008 1.008 0 0 0 0-1.42zm-20.71-18.29h19.59l5 5-5 5h-19.59zm-3-9a2 2 0 1 1 -2 2 2.006 2.006 0 0 1 2-2zm1 5.86v46.14a1 1 0 0 1 -2 0v-46.14a3.641 3.641 0 0 0 2 0zm-23.59 23.14-5-5 5-5h19.59v10zm28.59 25c0 .71-2.28 2-6 2s-6-1.29-6-2c0-.47 1.07-1.26 3.03-1.69a2.985 2.985 0 0 0 5.94 0c1.96.43 3.03 1.22 3.03 1.69zm16.59-15h-19.59v-10h19.59l5 5z"/></symbol><symbol id="location" viewBox="0 0 512 512"><title>location</title><g><path d="m402.05 75.502c-80.662-80.66-211.443-80.66-292.105 0-80.659 80.662-80.659 211.443 0 292.105l117.711 117.707c15.586 15.59 41.098 15.59 56.688 0l117.706-117.707c80.659-80.662 80.659-211.443 0-292.105zm-146.051 223.512c-42.781-.002-77.457-34.678-77.459-77.457.002-42.777 34.678-77.459 77.455-77.459 42.779.004 77.456 34.682 77.458 77.461 0 42.777-34.679 77.455-77.454 77.455z" fill="#ff5b5b"/></g><g><path d="m412.659 64.889c-41.846-41.844-97.48-64.889-156.659-64.889-59.178 0-114.814 23.045-156.66 64.889-41.843 41.845-64.887 97.48-64.887 156.659s23.044 114.814 64.888 156.659l117.709 117.706c10.371 10.374 24.205 16.087 38.951 16.087 14.745 0 28.578-5.713 38.951-16.086l117.707-117.707c41.844-41.845 64.888-97.48 64.888-156.659s-23.044-114.815-64.888-156.659zm-21.213 292.105-117.707 117.707c-4.707 4.707-11.007 7.299-17.738 7.299-6.732 0-13.03-2.592-17.736-7.299l-117.71-117.707c-74.683-74.686-74.683-196.207 0-270.893 36.177-36.177 84.28-56.101 135.445-56.101s99.268 19.924 135.446 56.102c74.682 74.685 74.682 196.207 0 270.892z"/><path d="m255.998 129.091c-50.978 0-92.453 41.477-92.455 92.46.002 50.978 41.479 92.454 92.458 92.456h.001c50.979 0 92.454-41.476 92.454-92.456-.002-50.978-41.478-92.455-92.458-92.46zm.005 154.916c-34.439-.002-62.458-28.02-62.46-62.456.001-34.44 28.019-62.46 62.454-62.46 34.438.003 62.457 28.023 62.459 62.461 0 34.437-28.017 62.455-62.453 62.455z"/></g></symbol><symbol id="delete" viewBox="-64 0 512 512"><title>delete</title><path d="m256 80h-32v-48h-64v48h-32v-80h128zm0 0" fill="#62808c"/><path d="m304 512h-224c-26.507812 0-48-21.492188-48-48v-336h320v336c0 26.507812-21.492188 48-48 48zm0 0" fill="#e76e54"/><path d="m384 160h-384v-64c0-17.671875 14.328125-32 32-32h320c17.671875 0 32 14.328125 32 32zm0 0" fill="#77959e"/><path d="m260 260c-6.246094-6.246094-16.375-6.246094-22.625 0l-41.375 41.375-41.375-41.375c-6.25-6.246094-16.378906-6.246094-22.625 0s-6.246094 16.375 0 22.625l41.375 41.375-41.375 41.375c-6.246094 6.25-6.246094 16.378906 0 22.625s16.375 6.246094 22.625 0l41.375-41.375 41.375 41.375c6.25 6.246094 16.378906 6.246094 22.625 0s6.246094-16.375 0-22.625l-41.375-41.375 41.375-41.375c6.246094-6.25 6.246094-16.378906 0-22.625zm0 0" fill="#fff"/></symbol><symbol id="like" viewBox="0 0 512 512"><title>like</title><path d="m366.763 52.242c-55.361 0-84.61 26.631-109.467 70.722-24.856-44.091-54.105-70.722-109.466-70.722-65.874 0-119.466 53.593-119.466 119.467 0 40.249 13.648 76.775 42.952 114.948 25.864 33.693 62.063 66.07 100.388 100.348 25.502 22.809 51.872 46.395 78.522 73.045 1.953 1.952 4.512 2.929 7.071 2.929 2.56 0 5.118-.977 7.071-2.929 26.688-26.689 53.104-50.305 78.65-73.143 38.32-34.258 74.515-66.616 100.381-100.295 29.308-38.16 42.958-74.672 42.958-114.903-.001-65.874-53.65-119.467-119.594-119.467zm-37.075 319.755c-23.507 21.015-47.744 42.683-72.393 66.901-24.606-24.18-48.797-45.816-72.26-66.801-76.358-68.296-136.672-122.241-136.672-200.388 0-54.847 44.62-99.467 99.466-99.467 46.532 0 71.897 19.322 100.522 76.572 1.694 3.388 5.157 5.528 8.944 5.528 3.788 0 7.25-2.141 8.944-5.528 28.626-57.25 53.991-76.572 100.522-76.572 54.916 0 99.594 44.62 99.594 99.467.001 78.106-60.31 132.024-136.667 200.288z"/></symbol><symbol id="heart-1" viewBox="0 -21 512 512"><title>heart-1</title><path d="m370.792969 0c-46.183594 0-88.660157 22.335938-114.792969 58.730469-26.132812-36.394531-68.609375-58.730469-114.792969-58.730469-77.847656 0-141.207031 63.230469-141.207031 140.949219 0 138.261719 211.09375 303.125 230.058594 317.675781 6.785156 6.824219 16.128906 10.707031 25.941406 10.707031s19.15625-3.882812 25.941406-10.707031c18.964844-14.550781 230.058594-179.414062 230.058594-317.675781 0-77.71875-63.359375-140.949219-141.207031-140.949219zm0 0"/></symbol><symbol id="left-arrow" viewBox="0 0 480 480"><title>left-arrow</title><path d="m432 240c0 106.039062-85.960938 192-192 192s-192-85.960938-192-192 85.960938-192 192-192 192 85.960938 192 192zm0 0" fill="#cfd2fc"/><path d="m240 480c-132.546875 0-240-107.453125-240-240s107.453125-240 240-240 240 107.453125 240 240c-.148438 132.484375-107.515625 239.851562-240 240zm0-464c-123.710938 0-224 100.289062-224 224s100.289062 224 224 224 224-100.289062 224-224c-.140625-123.652344-100.347656-223.859375-224-224zm0 0" fill="#8690fa"/><g fill="#5153ff"><path d="m352 248h-224c-4.417969 0-8-3.582031-8-8s3.582031-8 8-8h224c4.417969 0 8 3.582031 8 8s-3.582031 8-8 8zm0 0"/><path d="m128 248c-3.101562 0-5.925781-1.796875-7.242188-4.605469-1.316406-2.8125-.886718-6.128906 1.097657-8.515625l80-96c2.859375-3.269531 7.804687-3.65625 11.144531-.878906 3.335938 2.78125 3.84375 7.71875 1.144531 11.121094l-80 96c-1.519531 1.824218-3.769531 2.878906-6.144531 2.878906zm0 0"/><path d="m208 344c-2.375 0-4.625-1.054688-6.144531-2.878906l-80-96c-1.910157-2.1875-2.488281-5.238282-1.507813-7.96875.980469-2.734375 3.363282-4.722656 6.230469-5.195313 2.863281-.46875 5.761719.648438 7.566406 2.921875l80 96c1.984375 2.386719 2.414063 5.703125 1.097657 8.515625-1.316407 2.808594-4.140626 4.605469-7.242188 4.605469zm0 0"/></g></symbol><symbol id="climb" viewBox="0 0 64 64"><title>climb</title><path d="M61.1,60.005l-9.706-.971-4.452-3.561L46.033,48.2,50.3,40.52l4.076,3.261a1,1,0,1,0,1.25-1.562l-4.98-3.984L48.383,36.2a1,1,0,0,0-1.338,1.486l1.694,1.525-2.275,4.1c-.048-.085-.083-.176-.138-.258l-5.533-8.3a4.99,4.99,0,0,0-4.16-2.226H32.7l-2.18-3.779a1,1,0,0,0-1.733,1l1.045,1.811-5.195,3-.5-.866a1,1,0,0,0-1.366-.366l-2.6,1.5-2.5-4.33a1,1,0,0,0-.836-.5.908.908,0,0,0-.865.449l-3.7,5.6a1,1,0,0,0-.031,1.051l3,5.2a1,1,0,0,1-.525,1.441,1.084,1.084,0,0,1-1.26-.534l-3.6-6.23a2.011,2.011,0,0,1-.016-1.971l4.029-7.259a5,5,0,0,1,1.871-1.9l.887-.513a1,1,0,0,0-.438-1.863,5,5,0,0,1-2.487-.851l6.021-7.943a4.949,4.949,0,0,1,1.249,6.033A1,1,0,0,0,22.371,22L24.7,20.661a1,1,0,0,0,.335-.316l3.7-5.6A1,1,0,0,0,28.76,13.7l-2.947-5.1a1.2,1.2,0,0,1-.149-.651L28.3,8.9l2.843,4.922a2.014,2.014,0,0,1,.016,1.971l-4.836,8.711a1,1,0,0,0,.008.986l.455.788a1,1,0,0,0,1.733-1l-.172-.3,4.56-8.216a4.023,4.023,0,0,0-.032-3.942L31.224,9.964,36,11.7V17a1,1,0,0,0,.35.759l6.372,5.462L39.132,29.5a1,1,0,0,0,.2,1.239l5,4.5a1,1,0,0,0,1.338-1.486l-4.4-3.961,3.582-6.269,1.981-2.972a1,1,0,1,0-1.664-1.11l-1.374,2.061L38,16.54V12.388l4.684,1.561a1,1,0,0,0,.632-1.9l-5.985-2L26.621,6.162,23.8,2.4a1,1,0,1,0-1.6,1.2l2,2.664a3.129,3.129,0,0,0-.117,3.329l2.638,4.568-3.226,4.885-.016.01a6.927,6.927,0,0,0-2.541-5.99l.845-1.115a1,1,0,0,0-.174-1.387,9.076,9.076,0,0,0-2.185-1.277l-1.445-6.5a1,1,0,0,0-1.954.434L17.243,8.7a8.984,8.984,0,0,0-6.5,16.193,1,1,0,0,0,1.381-.207l.377-.5a6.957,6.957,0,0,0,1.169.67,7,7,0,0,0-1.545,1.9L8.1,34.02a4.02,4.02,0,0,0,.032,3.942l3.6,6.23a3.153,3.153,0,0,0,2.7,1.586c.063,0,.127-.013.19-.017A43.219,43.219,0,0,1,5.429,57.469l-3.1,2.788a1,1,0,1,0,1.338,1.486l3.1-2.788A45.228,45.228,0,0,0,17.753,43.96c.474-1.042.9-2.116,1.293-3.2a3.993,3.993,0,0,0,6.59-4.474h0l5.2-3,.425.736a1,1,0,0,0,.866.5h4.511a3,3,0,0,1,2.5,1.335l5.533,8.3a1.8,1.8,0,0,1,.268,1.37,1.829,1.829,0,0,1-.8,1.165,1.879,1.879,0,0,1-2.526-.587l-5.011-7.158a1,1,0,0,0-.82-.426H28.658a1,1,0,0,0-.866,1.5l3.272,5.668a2.993,2.993,0,0,1,.092,2.83l-4.422,8.943a1.8,1.8,0,0,1-1.051.916,1.824,1.824,0,0,1-1.411-.11,1.882,1.882,0,0,1-.754-2.481l3.693-7.919a1,1,0,0,0-.04-.923l-1.782-3.089a1,1,0,0,0-1.733,1l1.523,2.638-3.474,7.447a3.812,3.812,0,0,0,3.405,5.531,3.821,3.821,0,0,0,3.417-2.123l4.422-8.943a4.993,4.993,0,0,0-.152-4.717l-2.406-4.168h4.862l4.712,6.731A3.944,3.944,0,0,0,44.1,48.835l.911,7.289a1,1,0,0,0,.367.657l5,4A1,1,0,0,0,50.9,61l10,1A.875.875,0,0,0,61,62a1,1,0,0,0,.1-1.995ZM11.16,22.65A6.9,6.9,0,0,1,9.939,21.1,7.008,7.008,0,0,1,12.5,11.537a6.935,6.935,0,0,1,5.675-.579A1.122,1.122,0,0,0,18.3,11a7.011,7.011,0,0,1,1.259.573Zm3.124,13.974,2.464-3.732,1.691,2.929-.866.5a1,1,0,0,0-.366,1.366l.493.855q-.4,1.246-.882,2.47ZM24.1,38.8a1.992,1.992,0,0,1-.933,1.214h0a2,2,0,0,1-2.732-.732l-1-1.732,3.464-2,1,1.732A1.99,1.99,0,0,1,24.1,38.8Z"/><path d="M56.242,25.03l-4-1a1,1,0,0,0-1.137.523l-2,4a1,1,0,0,0,1.79.894l1.641-3.282,3.222.8a1,1,0,1,0,.484-1.94Z"/><path d="M53.293,49.293l-3,3a1,1,0,1,0,1.414,1.414l2.42-2.42,2.318,1.545a1,1,0,1,0,1.11-1.664l-3-2A1,1,0,0,0,53.293,49.293Z"/><path d="M54.68,12.906l-3.387,3.387a1,1,0,0,0,0,1.414l5,5a1,1,0,0,0,1.414-1.414L53.414,17l3.293-3.293A1,1,0,0,0,56.8,12.4L54.225,8.966l3.607-5.411a1,1,0,0,0-1.664-1.11l-4,6A1,1,0,0,0,52.2,9.6Z"/><path d="M46.445,7.832a1,1,0,0,0,1.262-.125l4-4a1,1,0,1,0-1.414-1.414l-3.42,3.42L41.555,2.168a1,1,0,0,0-1.11,1.664Z"/></symbol><symbol id="down-arrow" viewBox="0 0 512.011 512.011"><title>down-arrow</title><path d="M505.755,123.592c-8.341-8.341-21.824-8.341-30.165,0L256.005,343.176L36.421,123.592c-8.341-8.341-21.824-8.341-30.165,0 s-8.341,21.824,0,30.165l234.667,234.667c4.16,4.16,9.621,6.251,15.083,6.251c5.462,0,10.923-2.091,15.083-6.251l234.667-234.667 C514.096,145.416,514.096,131.933,505.755,123.592z"/></symbol><symbol id="paint-bucket" viewBox="0 0 511.999 511.999"><title>paint-bucket</title><g> <path style="fill:#F2D59F;" d="M257.178,276.185c-52.208-52.207-87.782-101.288-79.45-109.619L33.239,311.054 c-8.334,8.331,27.24,57.407,79.45,109.619c52.208,52.211,101.29,87.783,109.62,79.451l144.488-144.488 C358.466,363.967,309.387,328.396,257.178,276.185z"/> <path style="fill:#FF821D;" d="M177.727,166.566c-8.332,8.332,27.242,57.411,79.45,109.619 c52.208,52.211,101.288,87.783,109.62,79.451l60.337-60.336c-8.33,8.33-57.406-27.244-109.622-79.451 c-10.857-10.858-20.996-21.58-30.167-31.829c-34.938-39.033-55.88-71.194-49.281-77.791L177.727,166.566z"/> <g> <path style="fill:#FF3147;" d="M287.347,131.5c-25.412-19.9-44.385-30.169-49.281-25.273 c-6.598,6.597,14.344,38.759,49.281,77.791c9.171,10.25,19.31,20.97,30.167,31.829c52.215,52.207,101.292,87.781,109.622,79.451 c8.331-8.334-27.24-57.411-79.45-109.621c-5.95-5.951-11.858-11.684-17.671-17.162C314.799,154.181,300.245,141.601,287.347,131.5 z"/> <path style="fill:#FF3147;" d="M448.629,357.635c-12.354,12.355-31.402,36.064-31.402,53.931 c0,17.865,14.061,31.404,31.402,31.402c17.344,0.002,31.402-14.061,31.402-31.402 C480.032,393.175,460.983,369.989,448.629,357.635z"/> </g> </g><g> <path style="fill:#000003;" d="M374.353,363.165l60.326-60.326l0,0v-0.001c0.006-0.006,0.013-0.013,0.019-0.019 c8.981-9.01,4.358-24.12-15.948-52.137c-15.325-21.146-37.884-46.91-63.521-72.546c-1.913-1.913-7.189-7.148-14.548-14.118V32 c0-17.645-14.354-32-32-32c-17.646,0-32,14.355-32,32v78.383c-13.817-9.469-26.481-16.032-35.034-16.032 c-5.613,0-9.148,2.357-11.125,4.334c-0.002,0.002-0.004,0.005-0.006,0.007l-60.326,60.327c-0.002,0.001-0.004,0.002-0.006,0.004 c-0.002,0.002-0.004,0.004-0.006,0.006l-84.134,84.135c-0.002,0.003-0.006,0.006-0.011,0.011c-0.004,0.004-0.009,0.01-0.013,0.014 L55.877,273.33c-0.004,0.004-0.011,0.007-0.015,0.013c-0.006,0.006-0.011,0.014-0.019,0.019l-30.145,30.148 c-9.01,9.008-4.396,24.12,15.928,52.158c15.325,21.145,37.884,46.909,63.521,72.545c8.577,8.576,84.619,83.786,113.581,83.785 c5.613,0,9.146-2.356,11.123-4.334l144.47-144.469c0.006-0.005,0.013-0.011,0.019-0.017 C374.344,363.176,374.347,363.171,374.353,363.165z M361.505,345.844c-10.516-2.983-46.042-26.456-96.785-77.199 c-50.744-50.748-74.215-86.272-77.198-96.788l44.179-44.18c0.035,0.07,0.077,0.144,0.114,0.215c0.38,0.736,0.773,1.484,1.191,2.249 c0.059,0.105,0.121,0.214,0.179,0.319c0.373,0.674,0.761,1.36,1.163,2.058c0.153,0.263,0.31,0.531,0.467,0.798 c0.332,0.567,0.673,1.141,1.027,1.724c0.169,0.281,0.337,0.56,0.512,0.844c0.406,0.661,0.825,1.332,1.257,2.012 c0.123,0.194,0.24,0.383,0.363,0.577c0.558,0.873,1.137,1.762,1.733,2.667c0.155,0.23,0.315,0.467,0.468,0.701 c0.461,0.69,0.931,1.389,1.414,2.097c0.217,0.317,0.435,0.637,0.656,0.957c0.465,0.674,0.942,1.358,1.425,2.048 c0.212,0.301,0.419,0.598,0.636,0.902c0.695,0.985,1.406,1.98,2.144,2.998c2.875,3.965,6.002,8.092,9.356,12.35 c6.229,7.906,13.257,16.271,20.873,24.881v57.943c0,5.891,4.777,10.667,10.667,10.667c5.891,0,10.667-4.775,10.667-10.667V211.18 c3.902,4.061,7.888,8.135,11.961,12.209c0.118,0.119,0.254,0.254,0.4,0.4c0.054,0.053,0.112,0.112,0.171,0.17 c0.111,0.111,0.227,0.226,0.35,0.35c0.059,0.059,0.121,0.118,0.181,0.179c0.129,0.129,0.265,0.262,0.406,0.403 c0.073,0.073,0.146,0.145,0.223,0.221c0.144,0.143,0.298,0.293,0.454,0.448c0.083,0.083,0.164,0.163,0.252,0.25 c0.21,0.208,0.431,0.426,0.66,0.651c0.044,0.044,0.087,0.085,0.131,0.129c0.265,0.26,0.544,0.534,0.831,0.817 c0.048,0.046,0.098,0.095,0.146,0.141c0.245,0.242,0.5,0.491,0.765,0.749c0.09,0.089,0.181,0.178,0.273,0.268 c0.24,0.235,0.487,0.475,0.739,0.721c0.098,0.094,0.194,0.188,0.291,0.285c0.267,0.259,0.542,0.526,0.821,0.797 c0.094,0.09,0.183,0.177,0.277,0.268c0.752,0.731,1.552,1.501,2.391,2.31c0.073,0.069,0.148,0.141,0.221,0.211 c0.341,0.33,0.691,0.663,1.047,1.005c0.121,0.116,0.243,0.235,0.369,0.353c0.319,0.305,0.642,0.614,0.971,0.928 c0.14,0.133,0.279,0.267,0.421,0.402c0.367,0.349,0.739,0.702,1.117,1.06c0.09,0.085,0.177,0.169,0.269,0.255 c0.975,0.925,1.987,1.882,3.034,2.866c0.107,0.098,0.212,0.198,0.317,0.297c0.415,0.388,0.833,0.781,1.259,1.178 c0.144,0.134,0.288,0.27,0.433,0.405c0.404,0.379,0.815,0.761,1.229,1.147c0.142,0.132,0.286,0.266,0.429,0.399 c0.425,0.395,0.854,0.794,1.287,1.196c0.144,0.132,0.286,0.263,0.429,0.396c1.141,1.056,2.313,2.132,3.51,3.228 c0.112,0.103,0.227,0.208,0.341,0.311c0.477,0.436,0.958,0.874,1.442,1.314c0.175,0.159,0.352,0.319,0.527,0.479 c0.448,0.405,0.898,0.813,1.353,1.222c0.175,0.158,0.348,0.316,0.525,0.475c0.481,0.433,0.964,0.869,1.452,1.307 c0.146,0.131,0.291,0.261,0.437,0.393c1.277,1.145,2.575,2.3,3.891,3.463c0.142,0.125,0.284,0.25,0.425,0.374 c0.507,0.448,1.017,0.897,1.53,1.347c0.204,0.178,0.409,0.357,0.612,0.537c0.469,0.41,0.938,0.82,1.41,1.232 c0.202,0.177,0.406,0.353,0.61,0.53c0.509,0.442,1.019,0.884,1.532,1.327c0.164,0.143,0.332,0.286,0.496,0.429 c1.362,1.174,2.739,2.351,4.125,3.525c0.166,0.142,0.335,0.283,0.502,0.423c0.518,0.438,1.038,0.877,1.561,1.314 c0.221,0.186,0.442,0.371,0.665,0.556c0.479,0.402,0.96,0.804,1.443,1.205c0.229,0.19,0.457,0.379,0.686,0.569 c0.507,0.419,1.014,0.838,1.523,1.258c0.192,0.158,0.383,0.316,0.575,0.474c0.698,0.573,1.398,1.142,2.098,1.711v0.001 c0.71,0.575,1.419,1.148,2.129,1.717c0.188,0.149,0.373,0.298,0.56,0.446c0.514,0.413,1.031,0.823,1.546,1.233 c0.242,0.19,0.481,0.379,0.721,0.569c0.467,0.369,0.935,0.737,1.404,1.104c0.25,0.196,0.502,0.393,0.752,0.588 c0.49,0.38,0.977,0.757,1.465,1.134c0.214,0.165,0.431,0.333,0.645,0.497c0.642,0.493,1.281,0.981,1.921,1.467 c0.063,0.047,0.125,0.094,0.188,0.141c0.7,0.53,1.401,1.055,2.098,1.575c0.198,0.148,0.398,0.294,0.596,0.442 c0.498,0.369,0.996,0.736,1.491,1.1c0.247,0.182,0.496,0.363,0.743,0.543c0.45,0.329,0.9,0.654,1.348,0.976 c0.26,0.188,0.521,0.374,0.779,0.56c0.454,0.324,0.907,0.644,1.356,0.962c0.24,0.169,0.477,0.337,0.715,0.505 c0.583,0.407,1.163,0.81,1.74,1.209c0.102,0.069,0.202,0.141,0.304,0.21c0.671,0.461,1.338,0.913,2.002,1.359 c0.223,0.149,0.444,0.294,0.665,0.443c0.448,0.298,0.896,0.594,1.342,0.885c0.258,0.171,0.516,0.337,0.775,0.506 c0.413,0.268,0.825,0.532,1.235,0.794c0.258,0.165,0.518,0.331,0.775,0.493c0.421,0.264,0.837,0.525,1.254,0.782 c0.238,0.147,0.477,0.295,0.713,0.441c0.514,0.315,1.025,0.622,1.534,0.925c0.131,0.079,0.265,0.161,0.398,0.24 c0.625,0.37,1.244,0.73,1.86,1.082c0.217,0.124,0.429,0.241,0.644,0.363c0.411,0.231,0.821,0.462,1.227,0.685 c0.245,0.135,0.49,0.267,0.734,0.398c0.375,0.202,0.75,0.401,1.121,0.595c0.245,0.13,0.492,0.258,0.737,0.384 c0.131,0.067,0.262,0.139,0.391,0.204L361.505,345.844z M413.589,281.747c-0.247-0.139-0.496-0.273-0.752-0.419 c-0.162-0.092-0.321-0.18-0.485-0.275c-0.59-0.337-1.194-0.689-1.821-1.063c-0.009-0.004-0.015-0.009-0.023-0.014 c-0.65-0.387-1.323-0.799-2.013-1.226c-0.16-0.099-0.33-0.205-0.492-0.307c-0.525-0.329-1.062-0.667-1.611-1.019 c-0.221-0.141-0.444-0.285-0.669-0.43c-0.535-0.346-1.084-0.704-1.639-1.071c-0.208-0.139-0.417-0.274-0.629-0.415 c-0.758-0.506-1.532-1.026-2.327-1.57c-0.006-0.004-0.013-0.007-0.019-0.012c-0.813-0.556-1.65-1.137-2.5-1.734 c-0.214-0.15-0.437-0.309-0.654-0.462c-0.638-0.45-1.285-0.911-1.943-1.383c-0.275-0.197-0.553-0.397-0.829-0.598 c-0.65-0.47-1.311-0.953-1.979-1.445c-0.258-0.19-0.514-0.378-0.778-0.571c-0.918-0.679-1.85-1.374-2.802-2.094 c-0.004-0.003-0.009-0.005-0.013-0.009c-0.969-0.732-1.958-1.489-2.962-2.263c-0.262-0.202-0.531-0.412-0.796-0.617 c-0.746-0.578-1.5-1.165-2.265-1.766c-0.327-0.257-0.656-0.516-0.988-0.778c-0.756-0.598-1.523-1.207-2.296-1.827 c-0.302-0.243-0.604-0.482-0.909-0.729c-2.157-1.734-4.379-3.555-6.667-5.462c-0.3-0.251-0.606-0.509-0.909-0.763 c-0.85-0.711-1.709-1.434-2.575-2.17c-0.377-0.319-0.756-0.641-1.135-0.965c-0.857-0.73-1.723-1.472-2.596-2.225 c-0.343-0.298-0.686-0.591-1.034-0.891c-2.433-2.107-4.927-4.302-7.484-6.587c-0.346-0.309-0.698-0.627-1.045-0.941 c-0.946-0.847-1.895-1.706-2.857-2.577c-0.417-0.378-0.833-0.757-1.252-1.14c-0.962-0.878-1.935-1.771-2.914-2.673 c-0.371-0.341-0.737-0.679-1.11-1.025c-2.7-2.499-5.456-5.089-8.271-7.773c-0.373-0.357-0.752-0.722-1.13-1.083 c-1.045-1.002-2.098-2.014-3.161-3.041c-0.446-0.432-0.892-0.866-1.342-1.301c-1.065-1.036-2.14-2.086-3.218-3.147 c-0.394-0.387-0.785-0.769-1.182-1.159c-1.473-1.454-2.958-2.925-4.459-4.426c-1.498-1.498-2.966-2.978-4.417-4.449 c-0.4-0.406-0.794-0.809-1.189-1.213c-1.05-1.068-2.087-2.129-3.11-3.181c-0.448-0.462-0.894-0.922-1.34-1.38 c-1.004-1.039-1.996-2.068-2.975-3.092c-0.381-0.398-0.767-0.798-1.141-1.193c-2.675-2.804-5.257-5.553-7.748-8.243 c-0.354-0.381-0.698-0.757-1.047-1.135c-0.898-0.974-1.786-1.94-2.658-2.898c-0.383-0.419-0.765-0.838-1.141-1.255 c-0.094-0.102-0.183-0.203-0.277-0.305v-25.938c7.525,6.439,15.683,13.757,24.402,21.979c0.094,0.094,0.192,0.181,0.29,0.272 c5.587,5.276,11.402,10.914,17.438,16.95C381.56,234.637,404.816,265.926,413.589,281.747z M298.014,32 c0-5.882,4.785-10.667,10.669-10.667c5.882,0,10.665,4.785,10.665,10.667v112.467c-6.754-5.974-14-12.162-21.333-18.069V32z M276.68,155.159c-0.323-0.4-0.656-0.807-0.975-1.202c-0.24-0.297-0.47-0.589-0.708-0.883c-0.627-0.784-1.244-1.559-1.85-2.325 c-0.254-0.323-0.509-0.645-0.761-0.965c-0.61-0.779-1.209-1.546-1.796-2.304c-0.196-0.252-0.394-0.507-0.586-0.755 c-1.546-2.005-3.006-3.939-4.385-5.803c-0.183-0.25-0.363-0.494-0.544-0.74c-0.5-0.679-0.99-1.35-1.467-2.011 c-0.198-0.272-0.394-0.544-0.588-0.813c-0.477-0.666-0.944-1.321-1.398-1.965c-0.15-0.211-0.302-0.427-0.45-0.636 c-0.598-0.852-1.179-1.689-1.735-2.503c-0.011-0.015-0.019-0.028-0.029-0.043c-0.535-0.785-1.05-1.549-1.548-2.298 c-0.148-0.221-0.29-0.435-0.433-0.653c-0.358-0.545-0.71-1.082-1.05-1.607c-0.153-0.236-0.304-0.469-0.452-0.701 c-0.337-0.527-0.662-1.043-0.979-1.549c-0.114-0.183-0.234-0.371-0.346-0.551c-0.419-0.678-0.822-1.341-1.204-1.979 c-0.031-0.052-0.061-0.101-0.092-0.154c-0.343-0.578-0.669-1.137-0.981-1.682c-0.111-0.191-0.212-0.375-0.319-0.562 c-0.135-0.239-0.26-0.468-0.389-0.701c6.131,3.401,14.596,8.988,25.065,16.954V155.159z M217.011,490.337 c-10.548-3.012-46.075-26.5-96.779-77.207c-50.706-50.706-74.194-86.232-77.207-96.777l14.021-14.021 c3.356,6.549,8.244,14.194,14.748,23.169c15.325,21.147,37.886,46.911,63.521,72.548c2.083,2.083,4.813,3.124,7.544,3.124 c2.73,0,5.458-1.042,7.541-3.124c4.166-4.165,4.166-10.92,0-15.085c-50.744-50.744-74.215-86.269-77.198-96.785l14.006-14.009 c0.809,1.536,1.579,2.898,2.212,4.016c6.302,11.116,16.732,25.53,30.156,41.682c2.111,2.538,5.148,3.849,8.21,3.847 c2.402,0,4.819-0.807,6.813-2.464c4.529-3.765,5.15-10.491,1.383-15.022c-23.267-27.991-30.919-42.922-32.567-48.268l67.95-67.95 c3.355,6.549,8.242,14.194,14.746,23.169c15.325,21.145,37.886,46.909,63.521,72.548c25.637,25.636,51.401,48.195,72.549,63.522 c8.981,6.51,16.621,11.388,23.173,14.742L217.011,490.337z"/> <path style="fill:#000003;" d="M456.17,350.092c-2-2-4.713-3.124-7.541-3.124c-2.829,0-5.543,1.124-7.543,3.124 c-8.098,8.099-34.525,36.471-34.525,61.472c0,23.59,18.479,42.068,42.068,42.068c23.196,0,42.068-18.872,42.068-42.068 C490.698,387.245,466.552,360.473,456.17,350.092z M448.629,432.3c-11.627,0-20.735-9.108-20.735-20.735 c0-10.152,9.758-25.552,20.748-38.275c11.187,12.88,20.723,28.026,20.723,38.275C469.365,422.998,460.063,432.3,448.629,432.3z"/> <path style="fill:#000003;" d="M174.111,405.733c-4.341-3.981-11.089-3.69-15.071,0.651c-3.983,4.341-3.692,11.089,0.65,15.071 l0.942,0.865c2.048,1.877,4.629,2.803,7.204,2.803c2.885,0,5.762-1.164,7.867-3.459c3.981-4.342,3.687-11.09-0.656-15.071 L174.111,405.733z"/> </g></symbol></svg>